<?xml version="1.0" encoding="utf-8"?>
<!-- Generator: Adobe Illustrator 26.0.3, SVG Export Plug-In . SVG Version: 6.00 Build 0)  -->
<svg version="1.0" id="Layer_1" xmlns="http://www.w3.org/2000/svg" xmlns:xlink="http://www.w3.org/1999/xlink" x="0px" y="0px"
	 viewBox="0 0 362 268" style="enable-background:new 0 0 362 268;" xml:space="preserve">
<style type="text/css">
	.st0{fill:#007FC5;}
</style>
<g>
	<g>
		<polyline class="st0" points="125.5,127.9 152.3,127.9 152.3,135.7 144.5,135.7 144.5,154.1 133.4,154.1 133.4,135.7 125.5,135.7 
					"/>
		<polyline class="st0" points="165.8,138.6 160.1,154.1 149.5,154.1 159.9,127.9 171.5,127.9 182.3,154.1 171.5,154.1 		"/>
		<polyline class="st0" points="179.7,127.9 206.5,127.9 206.5,135.7 198.8,135.7 198.8,154.1 187.7,154.1 187.7,135.7 179.7,135.7 
					"/>
		<polyline class="st0" points="219.9,138.6 214.3,154.1 203.6,154.1 214.1,127.9 225.7,127.9 236.5,154.1 225.7,154.1 		"/>
		<path class="st0" d="M220.4,79.8c-1.1-1.9-2.4-3.7-3.9-5.2c-4.3-4.1-9.4-7.2-15.1-9c-6.5-2.3-13.4-3.4-20.3-3.3
			c-7-0.1-13.9,1-20.5,3.3c-5.6,1.8-10.8,4.9-15,9c-1.5,1.6-2.9,3.3-3.9,5.2c11.3-2.5,22.8-4,34.3-4.5c1-0.1,2,0.3,2.6,1.1
			c0.7,0.8,0.7,3.6,0.7,5l-0.3,33.3c0.7,0,1.3,0.1,2.1,0.1c0.7,0,1.4,0,2.1-0.1l-0.3-33.3c0-1.4-0.1-4.2,0.6-5
			c0.6-0.7,1.6-1.1,2.6-1.1C197.6,75.8,209.1,77.3,220.4,79.8"/>
		<path class="st0" d="M222.1,84.2c-8.9-1.9-18.1-3-27.2-3.3c-6.8-0.4-6.8,1.9-6.2,6.2c0.1,0.3,0.1,0.6,0.2,1
			c2.3,12.7,5.1,23.5,5.5,25.3c16.4-3.5,28.2-13.3,28.2-24.8C222.6,87.1,222.5,85.7,222.1,84.2"/>
		<path class="st0" d="M173.3,87.1c0.7-4.3,0.6-6.6-6.1-6.2c-9.2,0.3-18.3,1.4-27.2,3.3c-0.4,1.4-0.5,2.9-0.6,4.4
			c0,4.9,2.1,9.8,6.2,13.9c4.3,4.1,9.4,7.1,15,8.9c2.3,0.8,4.6,1.5,7,2c0.5-1.8,3.4-12.9,5.6-25.7"/>
		<path class="st0" d="M285,190.6h3.3c1.3,0.1,2.6,0,3.9-0.2c0.6-0.2,1-0.5,1.4-1c0.4-0.6,0.5-1.3,0.5-2c0-0.7-0.1-1.4-0.5-2
			c-0.3-0.5-0.8-0.8-1.4-1c-1.2-0.2-2.4-0.3-3.6-0.2h-3.5 M280.6,205.2v-25.3h9.4c1.8-0.1,3.5,0.1,5.2,0.7c1.1,0.5,2,1.3,2.5,2.4
			c0.7,1.2,1,2.6,1,4c0.1,1.7-0.5,3.4-1.5,4.8c-1.1,1.3-2.7,2.1-4.3,2.3c0.9,0.6,1.7,1.3,2.4,2.1c1,1.3,1.8,2.7,2.6,4.1l2.7,4.9
			h-5.3l-3.3-5.5c-0.7-1.3-1.5-2.5-2.4-3.7c-0.4-0.4-0.8-0.8-1.3-1c-0.7-0.2-1.5-0.3-2.2-0.3H285v10.6L280.6,205.2z M259.9,205.2
			v-25.3h16.5v4.3h-12v5.6h11.1v4.2h-11.1v6.9h12.4v4.3L259.9,205.2z M233.8,205.2l-5.3-25.4h4.6l3.3,17.4l4.1-17.4h5.3l3.9,17.7
			l3.4-17.7h4.5l-5.4,25.4h-4.8l-4.4-19l-4.4,19L233.8,205.2z M210.3,192.5c0,2.9,0.6,5.1,1.8,6.6c1,1.4,2.7,2.2,4.4,2.2
			c1.7,0,3.3-0.8,4.4-2.2c1.1-1.4,1.7-3.7,1.7-6.7s-0.6-5.1-1.7-6.5c-2-2.4-5.6-2.8-8-0.9c-0.3,0.3-0.6,0.5-0.9,0.9
			C210.9,187.3,210.3,189.5,210.3,192.5 M205.7,192.7c-0.1-2.6,0.4-5.1,1.4-7.5c0.8-1.8,2.1-3.3,3.7-4.4c1.7-1,3.6-1.5,5.6-1.4
			c3-0.1,5.8,1.2,7.8,3.4c2,2.3,3,5.5,3,9.7s-1.1,7.5-3.2,10c-1.9,2.1-4.7,3.3-7.6,3.2c-2.9,0.1-5.7-1-7.6-3.1
			C206.7,200.1,205.7,196.9,205.7,192.7 M190.4,184.2v7.2h2.5c1.1,0.1,2.3,0,3.4-0.3c0.6-0.2,1.1-0.6,1.5-1.2
			c0.4-0.6,0.6-1.4,0.6-2.1c0-0.7-0.2-1.5-0.6-2.1c-0.3-0.5-0.9-1-1.5-1.2c-1.2-0.3-2.4-0.3-3.7-0.3L190.4,184.2z M186,205.2v-25.4
			h7.2c1.8-0.1,3.5,0,5.3,0.4c1.3,0.4,2.5,1.3,3.2,2.5c0.9,1.5,1.4,3.2,1.3,5c0,1.6-0.3,3.2-1.1,4.6c-0.6,1.1-1.6,2-2.8,2.6
			c-1.8,0.6-3.8,0.9-5.7,0.8h-2.9v9.6L186,205.2z"/>
		<polyline class="st0" points="61.5,179.5 88.3,179.5 88.3,187.3 80.6,187.3 80.6,205.7 69.4,205.7 69.4,187.3 61.5,187.3 		"/>
		<polyline class="st0" points="101.8,190.1 96.2,205.7 85.5,205.7 96,179.5 107.6,179.5 118.4,205.7 107.6,205.7 		"/>
		<polyline class="st0" points="115.8,179.5 142.6,179.5 142.6,187.3 135,187.3 135,205.7 123.8,205.7 123.8,187.3 115.8,187.3 		
			"/>
		<polyline class="st0" points="156.1,190.1 150.5,205.7 139.8,205.7 150.3,179.5 161.9,179.5 172.7,205.7 161.9,205.7 		"/>
	</g>
</g>
</svg>
